<mxfile host="app.diagrams.net" modified="2023-04-20T17:27:59.047Z" agent="Mozilla/5.0 (X11; Ubuntu; Linux x86_64; rv:109.0) Gecko/20100101 Firefox/112.0" etag="UTMIl28RFzUKM0nJK7UR" version="21.1.7" type="github">
  <diagram name="Page-1" id="vGIemAL4wM8tcvDryLeF">
    <mxGraphModel dx="4291" dy="1136" grid="1" gridSize="10" guides="1" tooltips="1" connect="1" arrows="1" fold="1" page="1" pageScale="1" pageWidth="850" pageHeight="1100" math="0" shadow="0">
      <root>
        <mxCell id="0" />
        <mxCell id="1" parent="0" />
        <mxCell id="LG9q_AJQi__nY7LJM-45-2" value="" style="shape=mxgraph.cisco.computers_and_peripherals.pc;sketch=0;html=1;pointerEvents=1;dashed=0;fillColor=#036897;strokeColor=#ffffff;strokeWidth=2;verticalLabelPosition=bottom;verticalAlign=top;align=center;outlineConnect=0;" vertex="1" parent="1">
          <mxGeometry x="530" y="270" width="78" height="70" as="geometry" />
        </mxCell>
        <mxCell id="LG9q_AJQi__nY7LJM-45-3" value="" style="shape=mxgraph.cisco.computers_and_peripherals.pc;sketch=0;html=1;pointerEvents=1;dashed=0;fillColor=#036897;strokeColor=#ffffff;strokeWidth=2;verticalLabelPosition=bottom;verticalAlign=top;align=center;outlineConnect=0;" vertex="1" parent="1">
          <mxGeometry x="248" y="270" width="78" height="70" as="geometry" />
        </mxCell>
        <mxCell id="LG9q_AJQi__nY7LJM-45-4" value="" style="endArrow=classic;html=1;rounded=0;" edge="1" parent="1">
          <mxGeometry width="50" height="50" relative="1" as="geometry">
            <mxPoint x="340" y="300" as="sourcePoint" />
            <mxPoint x="520" y="300" as="targetPoint" />
          </mxGeometry>
        </mxCell>
        <mxCell id="LG9q_AJQi__nY7LJM-45-5" value="&lt;div&gt;IH&lt;/div&gt;&lt;div&gt;10306 -&amp;gt; capstone 7&lt;br&gt;&lt;/div&gt;&lt;div&gt;10300 -&amp;gt; capstone&lt;/div&gt;&lt;div&gt;iptables configured (ttl 255)&lt;br&gt;&lt;/div&gt;" style="text;html=1;align=center;verticalAlign=middle;resizable=0;points=[];autosize=1;strokeColor=none;fillColor=none;" vertex="1" parent="1">
          <mxGeometry x="195" y="335" width="170" height="70" as="geometry" />
        </mxCell>
        <mxCell id="LG9q_AJQi__nY7LJM-45-6" value="&lt;div&gt;capstone&lt;/div&gt;&lt;div&gt;10.50.30.255&lt;/div&gt;&lt;div&gt;22,80&lt;br&gt;&lt;/div&gt;" style="text;html=1;align=center;verticalAlign=middle;resizable=0;points=[];autosize=1;strokeColor=none;fillColor=none;" vertex="1" parent="1">
          <mxGeometry x="517" y="332" width="90" height="60" as="geometry" />
        </mxCell>
        <mxCell id="LG9q_AJQi__nY7LJM-45-7" value="ssh" style="text;html=1;align=center;verticalAlign=middle;resizable=0;points=[];autosize=1;strokeColor=none;fillColor=none;" vertex="1" parent="1">
          <mxGeometry x="410" y="315" width="40" height="30" as="geometry" />
        </mxCell>
        <mxCell id="LG9q_AJQi__nY7LJM-45-8" value="" style="shape=mxgraph.cisco.computers_and_peripherals.pc;sketch=0;html=1;pointerEvents=1;dashed=0;fillColor=#036897;strokeColor=#ffffff;strokeWidth=2;verticalLabelPosition=bottom;verticalAlign=top;align=center;outlineConnect=0;" vertex="1" parent="1">
          <mxGeometry x="951" y="236" width="78" height="70" as="geometry" />
        </mxCell>
        <mxCell id="LG9q_AJQi__nY7LJM-45-9" value="" style="shape=mxgraph.cisco.computers_and_peripherals.pc;sketch=0;html=1;pointerEvents=1;dashed=0;fillColor=#036897;strokeColor=#ffffff;strokeWidth=2;verticalLabelPosition=bottom;verticalAlign=top;align=center;outlineConnect=0;" vertex="1" parent="1">
          <mxGeometry x="876" y="390" width="78" height="70" as="geometry" />
        </mxCell>
        <mxCell id="LG9q_AJQi__nY7LJM-45-11" value="" style="shape=mxgraph.cisco.computers_and_peripherals.pc;sketch=0;html=1;pointerEvents=1;dashed=0;fillColor=#036897;strokeColor=#ffffff;strokeWidth=2;verticalLabelPosition=bottom;verticalAlign=top;align=center;outlineConnect=0;" vertex="1" parent="1">
          <mxGeometry x="871" y="10" width="78" height="70" as="geometry" />
        </mxCell>
        <mxCell id="LG9q_AJQi__nY7LJM-45-14" value="&lt;div&gt;capstone 4&lt;br&gt;&lt;/div&gt;&lt;div&gt;10.1.1.33&lt;/div&gt;&lt;div&gt;23,21,80&lt;br&gt;&lt;/div&gt;" style="text;html=1;align=center;verticalAlign=middle;resizable=0;points=[];autosize=1;strokeColor=none;fillColor=none;" vertex="1" parent="1">
          <mxGeometry x="886" y="234" width="80" height="60" as="geometry" />
        </mxCell>
        <mxCell id="LG9q_AJQi__nY7LJM-45-15" value="&lt;div&gt;capstone 2&lt;br&gt;&lt;/div&gt;&lt;div&gt;10.1.1.11&lt;/div&gt;&lt;div&gt;23,21&lt;br&gt;&lt;/div&gt;" style="text;html=1;align=center;verticalAlign=middle;resizable=0;points=[];autosize=1;strokeColor=none;fillColor=none;" vertex="1" parent="1">
          <mxGeometry x="816" y="390" width="80" height="60" as="geometry" />
        </mxCell>
        <mxCell id="LG9q_AJQi__nY7LJM-45-17" value="&lt;div&gt;capstone 3&lt;br&gt;&lt;/div&gt;&lt;div&gt;10.1.1.25&lt;/div&gt;&lt;div&gt;21, 791,4869&lt;br&gt;&lt;/div&gt;" style="text;html=1;align=center;verticalAlign=middle;resizable=0;points=[];autosize=1;strokeColor=none;fillColor=none;" vertex="1" parent="1">
          <mxGeometry x="784" y="15" width="90" height="60" as="geometry" />
        </mxCell>
        <mxCell id="LG9q_AJQi__nY7LJM-45-19" value="&lt;div&gt;int&lt;br&gt;&lt;/div&gt;&lt;div&gt;10.1.1.30&lt;/div&gt;&lt;div&gt;&lt;br&gt;&lt;/div&gt;" style="text;html=1;align=center;verticalAlign=middle;resizable=0;points=[];autosize=1;strokeColor=none;fillColor=none;" vertex="1" parent="1">
          <mxGeometry x="533" y="234" width="70" height="60" as="geometry" />
        </mxCell>
        <mxCell id="LG9q_AJQi__nY7LJM-45-20" value="&lt;div&gt;HINT&lt;/div&gt;&lt;div&gt;this box can see capstone 5 &lt;br&gt;&lt;/div&gt;&lt;div&gt;on another network.&lt;/div&gt;&lt;div&gt;sniff packets with (w32/blaster worm ports)&lt;br&gt;&lt;/div&gt;" style="text;html=1;align=center;verticalAlign=middle;resizable=0;points=[];autosize=1;strokeColor=none;fillColor=none;" vertex="1" parent="1">
          <mxGeometry x="1011" y="236" width="250" height="70" as="geometry" />
        </mxCell>
        <mxCell id="LG9q_AJQi__nY7LJM-45-21" value="&lt;div&gt;tcp stream send to listener port&lt;/div&gt;&lt;div&gt;say &quot;Hi&quot;&lt;/div&gt;&lt;div&gt;decode from utf-8&lt;br&gt;&lt;/div&gt;" style="text;html=1;align=center;verticalAlign=middle;resizable=0;points=[];autosize=1;strokeColor=none;fillColor=none;" vertex="1" parent="1">
          <mxGeometry x="946" y="15" width="190" height="60" as="geometry" />
        </mxCell>
        <mxCell id="LG9q_AJQi__nY7LJM-45-22" value="" style="endArrow=classic;html=1;rounded=0;entryX=0.014;entryY=0.283;entryDx=0;entryDy=0;entryPerimeter=0;" edge="1" parent="1" target="LG9q_AJQi__nY7LJM-45-17">
          <mxGeometry width="50" height="50" relative="1" as="geometry">
            <mxPoint x="603" y="294" as="sourcePoint" />
            <mxPoint x="840" y="294" as="targetPoint" />
          </mxGeometry>
        </mxCell>
        <mxCell id="LG9q_AJQi__nY7LJM-45-23" value="" style="endArrow=classic;html=1;rounded=0;exitX=1;exitY=1.05;exitDx=0;exitDy=0;exitPerimeter=0;entryX=0.013;entryY=0.333;entryDx=0;entryDy=0;entryPerimeter=0;" edge="1" parent="1" source="LG9q_AJQi__nY7LJM-45-19" target="LG9q_AJQi__nY7LJM-45-15">
          <mxGeometry width="50" height="50" relative="1" as="geometry">
            <mxPoint x="613" y="304" as="sourcePoint" />
            <mxPoint x="710" y="410" as="targetPoint" />
          </mxGeometry>
        </mxCell>
        <mxCell id="LG9q_AJQi__nY7LJM-45-24" value="" style="endArrow=classic;html=1;rounded=0;exitX=1.029;exitY=0.917;exitDx=0;exitDy=0;exitPerimeter=0;entryX=-0.025;entryY=0.95;entryDx=0;entryDy=0;entryPerimeter=0;" edge="1" parent="1" source="LG9q_AJQi__nY7LJM-45-19" target="LG9q_AJQi__nY7LJM-45-14">
          <mxGeometry width="50" height="50" relative="1" as="geometry">
            <mxPoint x="623" y="314" as="sourcePoint" />
            <mxPoint x="710" y="200" as="targetPoint" />
          </mxGeometry>
        </mxCell>
        <mxCell id="LG9q_AJQi__nY7LJM-45-29" value="" style="shape=mxgraph.cisco.computers_and_peripherals.pc;sketch=0;html=1;pointerEvents=1;dashed=0;fillColor=#036897;strokeColor=#ffffff;strokeWidth=2;verticalLabelPosition=bottom;verticalAlign=top;align=center;outlineConnect=0;" vertex="1" parent="1">
          <mxGeometry x="-55" y="270" width="78" height="70" as="geometry" />
        </mxCell>
        <mxCell id="LG9q_AJQi__nY7LJM-45-30" value="&lt;div&gt;&lt;br&gt;&lt;/div&gt;&lt;div&gt;capstone 5&lt;br&gt;&lt;/div&gt;&lt;div&gt;10.50.24.41&lt;/div&gt;&lt;div&gt;80,7777-ssh&lt;/div&gt;&lt;div&gt;&lt;br&gt;&lt;/div&gt;" style="text;html=1;align=center;verticalAlign=middle;resizable=0;points=[];autosize=1;strokeColor=none;fillColor=none;" vertex="1" parent="1">
          <mxGeometry x="-70" y="321" width="90" height="90" as="geometry" />
        </mxCell>
        <mxCell id="LG9q_AJQi__nY7LJM-45-31" value="" style="endArrow=classic;html=1;rounded=0;" edge="1" parent="1">
          <mxGeometry width="50" height="50" relative="1" as="geometry">
            <mxPoint x="240" y="300" as="sourcePoint" />
            <mxPoint x="30" y="300" as="targetPoint" />
          </mxGeometry>
        </mxCell>
        <mxCell id="LG9q_AJQi__nY7LJM-45-32" value="" style="shape=mxgraph.cisco.computers_and_peripherals.pc;sketch=0;html=1;pointerEvents=1;dashed=0;fillColor=#036897;strokeColor=#ffffff;strokeWidth=2;verticalLabelPosition=bottom;verticalAlign=top;align=center;outlineConnect=0;" vertex="1" parent="1">
          <mxGeometry x="-324" y="270" width="78" height="70" as="geometry" />
        </mxCell>
        <mxCell id="LG9q_AJQi__nY7LJM-45-37" value="" style="endArrow=classic;html=1;rounded=0;" edge="1" parent="1">
          <mxGeometry width="50" height="50" relative="1" as="geometry">
            <mxPoint x="-55" y="304.5" as="sourcePoint" />
            <mxPoint x="-240" y="305" as="targetPoint" />
          </mxGeometry>
        </mxCell>
        <mxCell id="LG9q_AJQi__nY7LJM-45-38" value="&lt;div&gt;capstone 7&lt;br&gt;&lt;/div&gt;&lt;div&gt;10.2.2.7&lt;/div&gt;&lt;div&gt;23,80,2222-ssh&lt;br&gt;&lt;/div&gt;" style="text;html=1;align=center;verticalAlign=middle;resizable=0;points=[];autosize=1;strokeColor=none;fillColor=none;" vertex="1" parent="1">
          <mxGeometry x="-347" y="330" width="110" height="60" as="geometry" />
        </mxCell>
        <mxCell id="LG9q_AJQi__nY7LJM-45-39" value="10.10.0.62" style="text;html=1;align=center;verticalAlign=middle;resizable=0;points=[];autosize=1;strokeColor=none;fillColor=none;" vertex="1" parent="1">
          <mxGeometry x="246" y="239" width="80" height="30" as="geometry" />
        </mxCell>
        <mxCell id="LG9q_AJQi__nY7LJM-45-41" value="10.2.2.6" style="text;html=1;align=center;verticalAlign=middle;resizable=0;points=[];autosize=1;strokeColor=none;fillColor=none;" vertex="1" parent="1">
          <mxGeometry x="-52" y="249" width="70" height="30" as="geometry" />
        </mxCell>
        <mxCell id="LG9q_AJQi__nY7LJM-45-42" value="&lt;div&gt;net1_student3&lt;/div&gt;&lt;div&gt;Netflix and Chill&lt;br&gt;&lt;/div&gt;" style="text;html=1;align=center;verticalAlign=middle;resizable=0;points=[];autosize=1;strokeColor=none;fillColor=none;" vertex="1" parent="1">
          <mxGeometry x="-340" y="220" width="110" height="40" as="geometry" />
        </mxCell>
        <mxCell id="LG9q_AJQi__nY7LJM-45-43" value="" style="shape=mxgraph.cisco.computers_and_peripherals.pc;sketch=0;html=1;pointerEvents=1;dashed=0;fillColor=#036897;strokeColor=#ffffff;strokeWidth=2;verticalLabelPosition=bottom;verticalAlign=top;align=center;outlineConnect=0;" vertex="1" parent="1">
          <mxGeometry x="-644.5" y="81" width="78" height="70" as="geometry" />
        </mxCell>
        <mxCell id="LG9q_AJQi__nY7LJM-45-44" value="" style="endArrow=classic;html=1;rounded=0;" edge="1" parent="1" target="LG9q_AJQi__nY7LJM-45-43">
          <mxGeometry width="50" height="50" relative="1" as="geometry">
            <mxPoint x="-330" y="300" as="sourcePoint" />
            <mxPoint x="-554" y="215" as="targetPoint" />
          </mxGeometry>
        </mxCell>
        <mxCell id="LG9q_AJQi__nY7LJM-45-45" value="&lt;div&gt;capstone 8&lt;br&gt;&lt;/div&gt;&lt;div&gt;10.10.10.140&lt;/div&gt;&lt;div&gt;21,301-ssh&lt;br&gt;&lt;/div&gt;" style="text;html=1;align=center;verticalAlign=middle;resizable=0;points=[];autosize=1;strokeColor=none;fillColor=none;" vertex="1" parent="1">
          <mxGeometry x="-657.5" y="141" width="90" height="60" as="geometry" />
        </mxCell>
        <mxCell id="LG9q_AJQi__nY7LJM-45-46" value="&lt;div&gt;10305 -&amp;gt;&lt;/div&gt;&lt;div&gt;&amp;lt;- 10399&lt;br&gt;&lt;/div&gt;" style="text;html=1;align=center;verticalAlign=middle;resizable=0;points=[];autosize=1;strokeColor=none;fillColor=none;" vertex="1" parent="1">
          <mxGeometry x="-60" y="390" width="70" height="40" as="geometry" />
        </mxCell>
        <mxCell id="LG9q_AJQi__nY7LJM-45-47" value="" style="shape=mxgraph.cisco.computers_and_peripherals.pc;sketch=0;html=1;pointerEvents=1;dashed=0;fillColor=#036897;strokeColor=#ffffff;strokeWidth=2;verticalLabelPosition=bottom;verticalAlign=top;align=center;outlineConnect=0;" vertex="1" parent="1">
          <mxGeometry x="-651" y="263" width="78" height="70" as="geometry" />
        </mxCell>
        <mxCell id="LG9q_AJQi__nY7LJM-45-48" value="&lt;div&gt;capstone 12&lt;/div&gt;&lt;div&gt;10.10.10.182&lt;/div&gt;&lt;div&gt;21,504-ssh&lt;br&gt;&lt;/div&gt;" style="text;html=1;align=center;verticalAlign=middle;resizable=0;points=[];autosize=1;strokeColor=none;fillColor=none;" vertex="1" parent="1">
          <mxGeometry x="-664" y="323" width="90" height="60" as="geometry" />
        </mxCell>
        <mxCell id="LG9q_AJQi__nY7LJM-45-49" value="" style="endArrow=classic;html=1;rounded=0;" edge="1" parent="1" target="LG9q_AJQi__nY7LJM-45-47">
          <mxGeometry width="50" height="50" relative="1" as="geometry">
            <mxPoint x="-330" y="300" as="sourcePoint" />
            <mxPoint x="-554" y="165" as="targetPoint" />
          </mxGeometry>
        </mxCell>
        <mxCell id="LG9q_AJQi__nY7LJM-45-50" value="PIVOT" style="text;html=1;align=center;verticalAlign=middle;resizable=0;points=[];autosize=1;strokeColor=none;fillColor=none;" vertex="1" parent="1">
          <mxGeometry x="-635.5" y="60" width="60" height="30" as="geometry" />
        </mxCell>
        <mxCell id="LG9q_AJQi__nY7LJM-45-51" value="PIVOT" style="text;html=1;align=center;verticalAlign=middle;resizable=0;points=[];autosize=1;strokeColor=none;fillColor=none;" vertex="1" parent="1">
          <mxGeometry x="-642" y="245" width="60" height="30" as="geometry" />
        </mxCell>
        <mxCell id="LG9q_AJQi__nY7LJM-45-52" value="" style="shape=mxgraph.cisco.computers_and_peripherals.pc;sketch=0;html=1;pointerEvents=1;dashed=0;fillColor=#036897;strokeColor=#ffffff;strokeWidth=2;verticalLabelPosition=bottom;verticalAlign=top;align=center;outlineConnect=0;" vertex="1" parent="1">
          <mxGeometry x="-887" y="80" width="78" height="70" as="geometry" />
        </mxCell>
        <mxCell id="LG9q_AJQi__nY7LJM-45-53" value="" style="endArrow=classic;html=1;rounded=0;" edge="1" parent="1" target="LG9q_AJQi__nY7LJM-45-52">
          <mxGeometry width="50" height="50" relative="1" as="geometry">
            <mxPoint x="-644.5" y="115.5" as="sourcePoint" />
            <mxPoint x="-829.5" y="116" as="targetPoint" />
          </mxGeometry>
        </mxCell>
        <mxCell id="LG9q_AJQi__nY7LJM-45-54" value="&lt;div&gt;capstone 9&lt;br&gt;&lt;/div&gt;&lt;div&gt;192.168.10.39&lt;/div&gt;&lt;div&gt;21,3790-webpage&lt;br&gt;&lt;/div&gt;" style="text;html=1;align=center;verticalAlign=middle;resizable=0;points=[];autosize=1;strokeColor=none;fillColor=none;" vertex="1" parent="1">
          <mxGeometry x="-915" y="140" width="120" height="60" as="geometry" />
        </mxCell>
        <mxCell id="LG9q_AJQi__nY7LJM-45-55" value="10.10.10.129" style="text;html=1;align=center;verticalAlign=middle;resizable=0;points=[];autosize=1;strokeColor=none;fillColor=none;" vertex="1" parent="1">
          <mxGeometry x="-333" y="249" width="90" height="30" as="geometry" />
        </mxCell>
        <mxCell id="LG9q_AJQi__nY7LJM-45-59" value="192.168.10.99" style="text;html=1;align=center;verticalAlign=middle;resizable=0;points=[];autosize=1;strokeColor=none;fillColor=none;" vertex="1" parent="1">
          <mxGeometry x="-661.5" y="231" width="100" height="30" as="geometry" />
        </mxCell>
        <mxCell id="LG9q_AJQi__nY7LJM-45-60" value="192.168.10.44" style="text;html=1;align=center;verticalAlign=middle;resizable=0;points=[];autosize=1;strokeColor=none;fillColor=none;" vertex="1" parent="1">
          <mxGeometry x="-655.5" y="40" width="100" height="30" as="geometry" />
        </mxCell>
        <mxCell id="LG9q_AJQi__nY7LJM-45-61" value="" style="shape=mxgraph.cisco.computers_and_peripherals.pc;sketch=0;html=1;pointerEvents=1;dashed=0;fillColor=#036897;strokeColor=#ffffff;strokeWidth=2;verticalLabelPosition=bottom;verticalAlign=top;align=center;outlineConnect=0;" vertex="1" parent="1">
          <mxGeometry x="-893.5" y="261" width="78" height="70" as="geometry" />
        </mxCell>
        <mxCell id="LG9q_AJQi__nY7LJM-45-62" value="" style="endArrow=classic;html=1;rounded=0;" edge="1" parent="1" target="LG9q_AJQi__nY7LJM-45-61">
          <mxGeometry width="50" height="50" relative="1" as="geometry">
            <mxPoint x="-651" y="296.5" as="sourcePoint" />
            <mxPoint x="-836" y="297" as="targetPoint" />
          </mxGeometry>
        </mxCell>
        <mxCell id="LG9q_AJQi__nY7LJM-45-63" value="&lt;div&gt;capstone 13&lt;br&gt;&lt;/div&gt;&lt;div&gt;192.168.10.101&lt;/div&gt;&lt;div&gt;21,22,584-webservice&lt;br&gt;&lt;/div&gt;" style="text;html=1;align=center;verticalAlign=middle;resizable=0;points=[];autosize=1;strokeColor=none;fillColor=none;" vertex="1" parent="1">
          <mxGeometry x="-931.5" y="321" width="140" height="60" as="geometry" />
        </mxCell>
        <mxCell id="LG9q_AJQi__nY7LJM-45-64" value="" style="shape=mxgraph.cisco.computers_and_peripherals.pc;sketch=0;html=1;pointerEvents=1;dashed=0;fillColor=#036897;strokeColor=#ffffff;strokeWidth=2;verticalLabelPosition=bottom;verticalAlign=top;align=center;outlineConnect=0;" vertex="1" parent="1">
          <mxGeometry x="-900" y="400" width="78" height="70" as="geometry" />
        </mxCell>
        <mxCell id="LG9q_AJQi__nY7LJM-45-65" value="" style="endArrow=classic;html=1;rounded=0;" edge="1" parent="1" target="LG9q_AJQi__nY7LJM-45-64" source="LG9q_AJQi__nY7LJM-45-47">
          <mxGeometry width="50" height="50" relative="1" as="geometry">
            <mxPoint x="-657.5" y="435.5" as="sourcePoint" />
            <mxPoint x="-842.5" y="436" as="targetPoint" />
          </mxGeometry>
        </mxCell>
        <mxCell id="LG9q_AJQi__nY7LJM-45-66" value="&lt;div&gt;capstone 14&lt;/div&gt;&lt;div&gt;192.168.10.111&lt;/div&gt;&lt;div&gt;21,22,2223-webservice&lt;br&gt;&lt;/div&gt;" style="text;html=1;align=center;verticalAlign=middle;resizable=0;points=[];autosize=1;strokeColor=none;fillColor=none;" vertex="1" parent="1">
          <mxGeometry x="-943" y="460" width="150" height="60" as="geometry" />
        </mxCell>
        <mxCell id="LG9q_AJQi__nY7LJM-45-68" value="&lt;div&gt;hex encoded pcap&lt;/div&gt;&lt;div&gt;share folder&lt;/div&gt;&lt;div&gt;extract&lt;/div&gt;&lt;div&gt;decode with xxd&lt;/div&gt;&lt;div&gt;open with wireshark&lt;br&gt;&lt;/div&gt;" style="text;html=1;align=center;verticalAlign=middle;resizable=0;points=[];autosize=1;strokeColor=none;fillColor=none;" vertex="1" parent="1">
          <mxGeometry x="-1025" y="261" width="130" height="90" as="geometry" />
        </mxCell>
        <mxCell id="LG9q_AJQi__nY7LJM-45-72" value="check snort file locations" style="text;html=1;align=center;verticalAlign=middle;resizable=0;points=[];autosize=1;strokeColor=none;fillColor=none;" vertex="1" parent="1">
          <mxGeometry x="-1070" y="430" width="150" height="30" as="geometry" />
        </mxCell>
        <mxCell id="LG9q_AJQi__nY7LJM-45-73" value="" style="shape=mxgraph.cisco.computers_and_peripherals.pc;sketch=0;html=1;pointerEvents=1;dashed=0;fillColor=#036897;strokeColor=#ffffff;strokeWidth=2;verticalLabelPosition=bottom;verticalAlign=top;align=center;outlineConnect=0;" vertex="1" parent="1">
          <mxGeometry x="-559" y="400" width="78" height="70" as="geometry" />
        </mxCell>
        <mxCell id="LG9q_AJQi__nY7LJM-45-74" value="" style="endArrow=classic;html=1;rounded=0;" edge="1" parent="1" target="LG9q_AJQi__nY7LJM-45-73">
          <mxGeometry width="50" height="50" relative="1" as="geometry">
            <mxPoint x="-330" y="300" as="sourcePoint" />
            <mxPoint x="-501.5" y="436" as="targetPoint" />
          </mxGeometry>
        </mxCell>
        <mxCell id="LG9q_AJQi__nY7LJM-45-75" value="&lt;div&gt;capstone 10&lt;br&gt;&lt;/div&gt;&lt;div&gt;10.10.10.167&lt;br&gt;&lt;/div&gt;&lt;div&gt;80,404-ssh&lt;br&gt;&lt;/div&gt;" style="text;html=1;align=center;verticalAlign=middle;resizable=0;points=[];autosize=1;strokeColor=none;fillColor=none;" vertex="1" parent="1">
          <mxGeometry x="-572" y="460" width="90" height="60" as="geometry" />
        </mxCell>
        <mxCell id="LG9q_AJQi__nY7LJM-45-76" value="PIVOT" style="text;html=1;align=center;verticalAlign=middle;resizable=0;points=[];autosize=1;strokeColor=none;fillColor=none;" vertex="1" parent="1">
          <mxGeometry x="-550" y="381" width="60" height="30" as="geometry" />
        </mxCell>
        <mxCell id="LG9q_AJQi__nY7LJM-45-77" value="" style="shape=mxgraph.cisco.computers_and_peripherals.pc;sketch=0;html=1;pointerEvents=1;dashed=0;fillColor=#036897;strokeColor=#ffffff;strokeWidth=2;verticalLabelPosition=bottom;verticalAlign=top;align=center;outlineConnect=0;" vertex="1" parent="1">
          <mxGeometry x="-788" y="560" width="78" height="70" as="geometry" />
        </mxCell>
        <mxCell id="LG9q_AJQi__nY7LJM-45-78" value="" style="endArrow=classic;html=1;rounded=0;" edge="1" parent="1" target="LG9q_AJQi__nY7LJM-45-77">
          <mxGeometry width="50" height="50" relative="1" as="geometry">
            <mxPoint x="-559" y="460" as="sourcePoint" />
            <mxPoint x="-730.5" y="596" as="targetPoint" />
          </mxGeometry>
        </mxCell>
        <mxCell id="LG9q_AJQi__nY7LJM-45-79" value="&lt;div&gt;capstone 11&lt;br&gt;&lt;/div&gt;&lt;div&gt;192.168.10.80&lt;br&gt;&lt;/div&gt;&lt;div&gt;21,9050-webservice&lt;br&gt;&lt;/div&gt;" style="text;html=1;align=center;verticalAlign=middle;resizable=0;points=[];autosize=1;strokeColor=none;fillColor=none;" vertex="1" parent="1">
          <mxGeometry x="-821" y="620" width="130" height="60" as="geometry" />
        </mxCell>
        <mxCell id="LG9q_AJQi__nY7LJM-45-80" value="192.168.10.70" style="text;html=1;align=center;verticalAlign=middle;resizable=0;points=[];autosize=1;strokeColor=none;fillColor=none;" vertex="1" parent="1">
          <mxGeometry x="-570" y="367" width="100" height="30" as="geometry" />
        </mxCell>
      </root>
    </mxGraphModel>
  </diagram>
</mxfile>
